# xmcd CD database file
#
# Track frame offsets:
#	150
#	17475
#	39750
#	68215
#
# Disc length: 983 seconds
#
# Revision: 0
# Processed by: cddbd v1.5.1PL0 Copyright (c) Steve Scherf et al.
# Submitted via: CDex 1.51
#
DISCID=2403d504
DTITLE=アンジェラ - 神八剣伝
DYEAR=1900
DGENRE=Anime
TTITLE0=ｍｅｍｏｒｉｅｓ
TTITLE1=笑顔を見せて
TTITLE2=ｍｅｍｏｒｉｅｓ（カラオケ）
TTITLE3=データ
EXTD=
EXTT0=
EXTT1=
EXTT2=
EXTT3=
PLAYORDER=
